<?xml version="1.0" encoding="UTF-8" standalone="no"?>
<svg
   xmlns:dc="http://purl.org/dc/elements/1.1/"
   xmlns:cc="http://creativecommons.org/ns#"
   xmlns:rdf="http://www.w3.org/1999/02/22-rdf-syntax-ns#"
   xmlns:svg="http://www.w3.org/2000/svg"
   xmlns="http://www.w3.org/2000/svg"
   xmlns:xlink="http://www.w3.org/1999/xlink"
   xmlns:sodipodi="http://sodipodi.sourceforge.net/DTD/sodipodi-0.dtd"
   xmlns:inkscape="http://www.inkscape.org/namespaces/inkscape"
   inkscape:version="1.0 (4035a4fb49, 2020-05-01)"
   sodipodi:docname="logo-bugzilla.svg"
   id="svg2"
   height="152.28027"
   width="89"
   version="1.1">
  <metadata
     id="metadata45">
    <rdf:RDF>
      <cc:Work
         rdf:about="">
        <dc:format>image/svg+xml</dc:format>
        <dc:type
           rdf:resource="http://purl.org/dc/dcmitype/StillImage" />
        <dc:title></dc:title>
      </cc:Work>
    </rdf:RDF>
  </metadata>
  <sodipodi:namedview
     inkscape:current-layer="svg2"
     inkscape:window-maximized="1"
     inkscape:window-y="0"
     inkscape:window-x="0"
     inkscape:cy="77.04752"
     inkscape:cx="44.499999"
     inkscape:zoom="5.024"
     fit-margin-bottom="0"
     fit-margin-right="0"
     fit-margin-left="0"
     fit-margin-top="0"
     showgrid="false"
     id="namedview43"
     inkscape:window-height="1015"
     inkscape:window-width="1920"
     inkscape:pageshadow="2"
     inkscape:pageopacity="0"
     guidetolerance="10"
     gridtolerance="10"
     objecttolerance="10"
     borderopacity="1"
     bordercolor="#666666"
     pagecolor="#ffffff" />
  <defs
     id="defs6">
    <linearGradient
       id="linearGradient3703">
      <stop
         offset="0"
         style="stop-color:#e4bc98;stop-opacity:1"
         id="stop3705" />
      <stop
         offset="1"
         style="stop-color:#f6daaa;stop-opacity:0"
         id="stop3707" />
    </linearGradient>
    <linearGradient
       id="linearGradient3666">
      <stop
         offset="0"
         style="stop-color:#363433;stop-opacity:1"
         id="stop3668" />
      <stop
         offset="1"
         style="stop-color:#363433;stop-opacity:0"
         id="stop3670" />
    </linearGradient>
    <linearGradient
       id="linearGradient3652">
      <stop
         offset="0"
         style="stop-color:#ffffff;stop-opacity:1"
         id="stop3654" />
      <stop
         offset="1"
         style="stop-color:#ffffff;stop-opacity:0"
         id="stop3656" />
    </linearGradient>
    <linearGradient
       id="linearGradient3642">
      <stop
         offset="0"
         style="stop-color:#f6daaa;stop-opacity:1"
         id="stop3644" />
      <stop
         offset="1"
         style="stop-color:#e4bc98;stop-opacity:1"
         id="stop3646" />
    </linearGradient>
    <linearGradient
       id="linearGradient3592">
      <stop
         offset="0"
         style="stop-color:#8a7ab9;stop-opacity:1"
         id="stop3594" />
      <stop
         offset="1"
         style="stop-color:#b888b6;stop-opacity:1"
         id="stop3596" />
    </linearGradient>
    <linearGradient
       gradientTransform="translate(-59.000002,-1.3760473)"
       gradientUnits="userSpaceOnUse"
       xlink:href="#linearGradient3592"
       id="linearGradient3598"
       y2="122"
       x2="148"
       y1="33"
       x1="148" />
    <linearGradient
       gradientTransform="translate(-3.0000013,-1.3760473)"
       gradientUnits="userSpaceOnUse"
       xlink:href="#linearGradient3642"
       id="linearGradient3648"
       y2="96.023994"
       x2="34.957966"
       y1="88.198303"
       x1="41.975975" />
    <linearGradient
       gradientTransform="translate(-3.0000013,-1.3760473)"
       gradientUnits="userSpaceOnUse"
       xlink:href="#linearGradient3666"
       id="linearGradient3672"
       y2="51.232285"
       x2="50.293129"
       y1="51.557507"
       x1="53.223339" />
    <radialGradient
       gradientTransform="matrix(0.58653594,0.29353285,-1.1940084,2.3858619,90.617417,-113.59921)"
       gradientUnits="userSpaceOnUse"
       xlink:href="#linearGradient3703"
       id="radialGradient3711"
       fy="66.878647"
       fx="31.249113"
       r="9.7896147"
       cy="66.878647"
       cx="31.249113" />
    <radialGradient
       gradientTransform="matrix(1.5765759,0,0,1.5765759,-48.978023,-42.220102)"
       gradientUnits="userSpaceOnUse"
       xlink:href="#linearGradient3652"
       id="radialGradient3919"
       fy="69.120766"
       fx="79.978813"
       r="5.2966104"
       cy="69.120766"
       cx="79.978813" />
  </defs>
  <rect
     style="fill:url(#linearGradient3598);fill-opacity:1;stroke:#625874;stroke-width:0.988889;stroke-opacity:1"
     id="rect2818"
     y="32.118401"
     x="0.49444449"
     ry="1.9777777"
     rx="1.9777778"
     height="88.011108"
     width="88.011108" />
  <path
     style="color:#000000;display:inline;overflow:visible;visibility:visible;fill:#363433;fill-opacity:1;fill-rule:nonzero;stroke:none;stroke-width:1;marker:none;enable-background:accumulate"
     id="path3724"
     d="m 31.937498,93.373953 c -22.3905013,0 -24.3314683,21.921067 -24.4999993,26.249997 H 54.624998 c 0.09187,-5.02716 -0.799799,-26.249997 -22.6875,-26.249997 z" />
  <path
     style="color:#000000;display:inline;overflow:visible;visibility:visible;fill:#f6daaa;fill-opacity:1;fill-rule:nonzero;stroke:#363433;stroke-width:1.3;stroke-linecap:square;stroke-linejoin:miter;stroke-miterlimit:4;stroke-dasharray:none;stroke-dashoffset:0;stroke-opacity:1;marker:none;enable-background:accumulate"
     id="path3606"
     d="m 71.748409,56.75425 c 0.204833,12.129768 -14.843585,-5.27591 -12.910488,-12.579449 1.273856,-1.250112 2.557206,-2.336315 4.757972,-2.478313 1.810841,0.169826 6.663829,8.116521 8.152516,15.057762 z" />
  <path
     style="color:#000000;display:inline;overflow:visible;visibility:visible;fill:none;stroke:#6d6e6e;stroke-width:0.5;stroke-linecap:square;stroke-linejoin:miter;stroke-miterlimit:4;stroke-dasharray:none;stroke-dashoffset:0;stroke-opacity:1;marker:none;enable-background:accumulate"
     id="path3772"
     d="M 39.789696,45.722358 C 48.193771,24.219693 44.440613,3.8001007 36.864393,1.7930147" />
  <path
     style="color:#000000;display:inline;overflow:visible;visibility:visible;fill:url(#linearGradient3648);fill-opacity:1;fill-rule:nonzero;stroke:#363433;stroke-width:1.3;stroke-linecap:square;stroke-linejoin:miter;stroke-miterlimit:4;stroke-dasharray:none;stroke-dashoffset:0;stroke-opacity:1;marker:none;enable-background:accumulate"
     id="path3610"
     d="m 39.273568,45.333434 c -12.01865,1.503661 -14.097239,11.979224 -13.076006,15.790518 3.379531,12.00565 4.965572,20.162348 5.07316,33.861064 2.048688,2.16869 7.757805,4.618887 11.280124,1.096564 C 41.470802,87.927389 48.269968,85.592848 58.573091,86.349059 70.829308,87.24862 86.645125,84.347102 86.645125,72.710288 85.679655,65.377052 77.213191,59.939059 64.068324,52.384546" />
  <path
     style="color:#000000;display:inline;overflow:visible;visibility:visible;fill:none;stroke:#6d6e6e;stroke-width:0.5;stroke-linecap:square;stroke-linejoin:miter;stroke-miterlimit:4;stroke-dasharray:none;stroke-dashoffset:0;stroke-opacity:1;marker:none;enable-background:accumulate"
     id="path3774"
     d="M 42.505016,43.756092 C 42.056455,33.803491 64.638711,15.465607 72.467168,24.748852" />
  <path
     style="color:#000000;display:inline;overflow:visible;visibility:visible;fill:#f6daaa;fill-opacity:1;fill-rule:nonzero;stroke:none;stroke-width:1;marker:none;enable-background:accumulate"
     id="path3608"
     d="M 34.208684,51.060394 C 46.640899,35.749423 57.988128,33.832211 66.385591,59.203932" />
  <path
     style="fill:url(#radialGradient3919);fill-opacity:1;stroke:none"
     id="path3917"
     d="m 74.187498,58.936453 c -3.165706,1.191392 -5.40625,4.230125 -5.40625,7.8125 0,4.611857 3.700642,8.34375 8.3125,8.34375 3.783165,0 6.974683,-2.519713 8,-5.96875 -1.113423,-2.127317 -2.928161,-4.162109 -5.40625,-6.21875 -1.574929,-1.307081 -3.429473,-2.615193 -5.5,-3.96875 z" />
  <path
     style="color:#000000;font-style:normal;font-variant:normal;font-weight:normal;font-stretch:normal;font-size:medium;line-height:normal;font-family:ALPHA-Demo;-inkscape-font-specification:ALPHA-Demo;text-indent:0;text-align:start;text-decoration:none;text-decoration-line:none;letter-spacing:normal;word-spacing:normal;text-transform:none;writing-mode:lr-tb;direction:ltr;text-anchor:start;display:inline;overflow:visible;visibility:visible;fill:#363433;fill-opacity:1;fill-rule:nonzero;stroke:none;stroke-width:0.5;marker:none;enable-background:accumulate"
     id="path3660"
     d="m 40.124998,83.561453 c -0.501271,0 -1.079764,0.918058 -0.1875,0.84375 4.502472,-0.374966 8.845437,-0.282101 12.59375,2.34375 l 0.34375,-0.0625 0.46875,-0.59375 0.101007,-0.157983 C 49.342364,83.321085 44.816236,83.088383 40.124998,83.561453 Z" />
  <path
     style="color:#000000;display:inline;overflow:visible;visibility:visible;fill:#ffffff;fill-opacity:1;fill-rule:nonzero;stroke:url(#linearGradient3672);stroke-width:0.75;stroke-linecap:square;stroke-linejoin:miter;stroke-miterlimit:4;stroke-dasharray:none;stroke-dashoffset:0;stroke-opacity:1;marker:none;enable-background:accumulate"
     id="path3664"
     d="M 45.501231,64.870046 C 44.59182,63.960635 39.400082,47.793588 48.310183,45.2542 c 5.708867,-1.627033 12.546651,10.920544 12.546651,16.151473 0,5.230928 -10.676308,7.737039 -15.355603,3.464373 z" />
  <path
     style="fill:#343231;fill-opacity:1;stroke:none;stroke-width:1.67106"
     id="path3674"
     d="m 54.086189,52.719663 a 4.0147231,5.7075539 9.4999181 1 1 -7.892584,-1.480423 4.0147231,5.7075539 9.4999181 1 1 7.892584,1.480423 z" />
  <path
     style="fill:#ffffff;fill-opacity:1;stroke:none;stroke-width:1.13829"
     id="path3676"
     d="m 50.89452,50.595863 a 1.214946,2.0348168 25.789392 1 1 -2.187873,-1.057159 1.214946,2.0348168 25.789392 1 1 2.187873,1.057159 z" />
  <path
     style="fill:#ffffff;fill-opacity:1;stroke:none;stroke-width:0.511887"
     id="path3678"
     d="m 49.346492,55.236309 a 0.72660196,0.54670261 14.605154 1 0 1.240842,-0.419561 0.72660196,0.54670261 14.605154 1 0 -1.240842,0.419561 z" />
  <path
     style="color:#000000;display:inline;overflow:visible;visibility:visible;fill:url(#radialGradient3711);fill-opacity:1;fill-rule:nonzero;stroke:none;stroke-width:0.75;marker:none;enable-background:accumulate"
     id="path3680"
     d="m 39.874998,45.905203 -0.3125,0.03125 c -0.554368,0.474301 -0.585589,0.295601 -0.53125,0.0625 -0.106272,0.01494 -0.207942,0.04613 -0.3125,0.0625 -0.107269,0.122346 -0.231671,0.253746 -0.40625,0.46875 l -0.3125,0.375 -0.3125,0.125 0.3125,-0.375 c 0.250275,-0.308227 0.340609,-0.445242 0.375,-0.53125 -0.08386,0.01462 -0.167268,0.01571 -0.25,0.03125 -0.31082,0.208708 -0.572923,0.432662 -0.21875,0.0625 -4.936921,0.989238 -7.850001,3.608958 -9.5,6.46875 -1.797579,3.115581 -2.029597,6.586068 -1.59375,8.25 0.0019,0.0073 -0.0019,0.02405 0,0.03125 3.349102,11.901936 4.95982,20.145108 5.09375,33.65625 0.935506,0.929858 2.686692,2.008123 4.59375,2.40625 1.258091,0.262646 2.522689,0.241577 3.6875,-0.21875 0.695234,-0.710236 1.180123,-1.763798 1.6875,-2.9375 0.189794,-3.037518 1.667603,-5.263125 4.125,-6.5625 0.01177,-0.0062 0.01944,-0.02506 0.03125,-0.03125 z" />
  <path
     style="fill:#413f3e;fill-opacity:1;stroke:none;stroke-width:1.28556"
     id="path3776"
     d="m 38.032923,1.5664807 a 1.5648024,1.5648024 0 1 1 -3.129603,0 1.5648024,1.5648024 0 1 1 3.129603,0 z" />
  <path
     style="fill:#413f3e;fill-opacity:1;stroke:none;stroke-width:1.28556"
     id="path3778"
     d="m 74.049872,24.805357 a 1.5648024,1.5648024 0 1 1 -3.129603,0 1.5648024,1.5648024 0 1 1 3.129603,0 z" />
  <path
     style="fill:#ffffff;fill-opacity:1;stroke:none"
     id="path3848"
     d="M 30.875368,93.905215 C 19.299189,93.591067 11.830551,105.29061 12.665465,105.71092 c 1.386973,0.30582 2.871146,-2.98591 8.693008,-7.892521 2.639316,-2.224389 9.622318,-2.97599 9.519996,-3.756965 -0.0018,-0.05349 -6.4e-5,-0.103973 -0.0031,-0.156219 z" />
  <path
     style="color:#000000;display:inline;overflow:visible;visibility:visible;fill:#e67e71;fill-opacity:1;fill-rule:nonzero;stroke:none;stroke-width:1;marker:none;enable-background:accumulate"
     id="path3735"
     d="m 30.968748,97.217703 c -12.304926,5.400767 -16.010194,13.999347 -16.125,22.406247 h 38.46875 c -0.0033,-6.52287 -0.380988,-15.15798 -9.8125,-21.906247 -2.233365,1.96545 -5.12015,2.284597 -7.53125,1.78125 -1.946995,-0.40647 -3.679304,-1.256466 -5,-2.28125 z" />
  <path
     style="color:#000000;font-style:normal;font-variant:normal;font-weight:normal;font-stretch:normal;font-size:medium;line-height:normal;font-family:ALPHA-Demo;-inkscape-font-specification:ALPHA-Demo;text-indent:0;text-align:start;text-decoration:none;text-decoration-line:none;letter-spacing:normal;word-spacing:normal;text-transform:none;writing-mode:lr-tb;direction:ltr;text-anchor:start;display:inline;overflow:visible;visibility:visible;fill:#363433;fill-opacity:1;fill-rule:nonzero;stroke:none;stroke-width:1;marker:none;enable-background:accumulate"
     id="path3953"
     d="m 66.390623,59.217703 c -1.626136,-6.454728 -3.929929,-11.22015 -6.421875,-14.4375 -2.491946,-3.21735 -5.220224,-4.995179 -8.09375,-5.40625 -2.873526,-0.411071 -5.835057,0.520562 -8.84375,2.5 -3.008693,1.979438 -6.809203,6.287952 -8.828125,9.1875 3.337811,-3.318437 6.481481,-6.450366 9.359375,-8.34375 2.877894,-1.893384 5.620509,-2.71097 8.1875,-2.34375 2.566991,0.36722 5.020297,1.919498 7.40625,5 2.385953,3.080502 4.989904,7.596992 7.234375,13.84375 z" />
</svg>
