<svg viewBox="-301.4601769911505 -230.00000000000006 752.920353982301 540.0000000000001" xmlns="http://www.w3.org/2000/svg" tabindex="0" style="width: 100%; height: 100%; cursor: crosshair;"><g id="zoom"><rect id="canvas-handle" x="-5000" y="-5000" width="10000" height="10000" fill="none"/><g class="edge"><path stroke="rgba(0,0,0,0)" stroke-width="4" fill="none" d="M20 -30 L 20 -80" style="cursor: pointer;"/><path stroke="#738694" stroke-width="1" fill="none" d="M20 -30 L 20 -80" stroke-dasharray="0" marker-end="url(#arrow)" style="pointer-events: none;"/></g><g transform="translate(20 -55)" class="EdgeLabel"><g class="edge-handle"><rect class="EdgeLabel__outline" x="-13.453125" y="-4.390625" rx="3" stroke="#738694" stroke-width=".8px" fill="white" width="26.90625" height="8.78125"/><text text-anchor="middle" dy="1.4453125" class="EdgeLabel__text" fill="#738694" pointer-events="none" style="font-size: 5px; font-family: sans-serif;">Ownership</text></g></g><g class="edge"><path stroke="rgba(0,0,0,0)" stroke-width="4" fill="none" d="M20 -30 L 20 20" style="cursor: pointer;"/><path stroke="#738694" stroke-width="1" fill="none" d="M20 -30 L 20 20" stroke-dasharray="0" marker-end="url(#arrow)" style="pointer-events: none;"/></g><g transform="translate(20 -5)" class="EdgeLabel"><g class="edge-handle"><rect class="EdgeLabel__outline" x="-13.453125" y="-4.390625" rx="3" stroke="#738694" stroke-width=".8px" fill="white" width="26.90625" height="8.78125"/><text text-anchor="middle" dy="1.4453125" class="EdgeLabel__text" fill="#738694" pointer-events="none" style="font-size: 5px; font-family: sans-serif;">Ownership</text></g></g><g class="edge"><path stroke="rgba(0,0,0,0)" stroke-width="4" fill="none" d="M20 -200 L 20 -140" style="cursor: pointer;"/><path stroke="#738694" stroke-width="1" fill="none" d="M20 -200 L 20 -140" stroke-dasharray="0" marker-end="" style="pointer-events: none;"/></g><g transform="translate(20 -170)" class="EdgeLabel"><g class="edge-handle"><rect class="EdgeLabel__outline" x="-15.953125" y="-4.390625" rx="3" stroke="#738694" stroke-width=".8px" fill="white" width="31.90625" height="8.78125"/><text text-anchor="middle" dy="1.4453125" class="EdgeLabel__text" fill="#738694" pointer-events="none" style="font-size: 5px; font-family: sans-serif;">Editorial Line</text></g></g><g class="edge"><path stroke="rgba(0,0,0,0)" stroke-width="4" fill="none" d="M20 90 L 20 150" style="cursor: pointer;"/><path stroke="#738694" stroke-width="1" fill="none" d="M20 90 L 20 150" stroke-dasharray="0" marker-end="" style="pointer-events: none;"/></g><g transform="translate(20 120)" class="EdgeLabel"><g class="edge-handle"><rect class="EdgeLabel__outline" x="-43.1875" y="-4.390625" rx="3" stroke="#738694" stroke-width=".8px" fill="white" width="86.375" height="8.78125"/><text text-anchor="middle" dy="1.4453125" class="EdgeLabel__text" fill="#738694" pointer-events="none" style="font-size: 5px; font-family: sans-serif;">1 096 921 EUR from Jan to July 2015</text></g></g><g class="edge"><path stroke="rgba(0,0,0,0)" stroke-width="4" fill="none" d="M20 20 L 20 90" style="cursor: pointer;"/><path stroke="#738694" stroke-width="1" fill="none" d="M20 20 L 20 90" stroke-dasharray="0" marker-end="url(#arrow)" style="pointer-events: none;"/></g><g transform="translate(20 55)" class="EdgeLabel"><g class="edge-handle"><rect class="EdgeLabel__outline" x="-13.453125" y="-4.390625" rx="3" stroke="#738694" stroke-width=".8px" fill="white" width="26.90625" height="8.78125"/><text text-anchor="middle" dy="1.4453125" class="EdgeLabel__text" fill="#738694" pointer-events="none" style="font-size: 5px; font-family: sans-serif;">Ownership</text></g></g><g class="edge"><path stroke="rgba(0,0,0,0)" stroke-width="4" fill="none" d="M20 150 L 20 220" style="cursor: pointer;"/><path stroke="#738694" stroke-width="1" fill="none" d="M20 150 L 20 220" stroke-dasharray="0" marker-end="url(#arrow)" style="pointer-events: none;"/></g><g transform="translate(20 185)" class="EdgeLabel"><g class="edge-handle"><rect class="EdgeLabel__outline" x="-13.453125" y="-4.390625" rx="3" stroke="#738694" stroke-width=".8px" fill="white" width="26.90625" height="8.78125"/><text text-anchor="middle" dy="1.4453125" class="EdgeLabel__text" fill="#738694" pointer-events="none" style="font-size: 5px; font-family: sans-serif;">Ownership</text></g></g><g class="edge"><path stroke="rgba(0,0,0,0)" stroke-width="4" fill="none" d="M20 220 L 130 220" style="cursor: pointer;"/><path stroke="#738694" stroke-width="1" fill="none" d="M20 220 L 130 220" stroke-dasharray="0" marker-end="" style="pointer-events: none;"/></g><g transform="translate(75 220)" class="EdgeLabel"><g class="edge-handle"><rect class="EdgeLabel__outline" x="-27.21875" y="-4.390625" rx="3" stroke="#738694" stroke-width=".8px" fill="white" width="54.4375" height="8.78125"/><text text-anchor="middle" dy="1.4453125" class="EdgeLabel__text" fill="#738694" pointer-events="none" style="font-size: 5px; font-family: sans-serif;">100 000 $ in April 2017</text></g></g><g class="edge"><path stroke="rgba(0,0,0,0)" stroke-width="4" fill="none" d="M130 220 L 250 220" style="cursor: pointer;"/><path stroke="#738694" stroke-width="1" fill="none" d="M130 220 L 250 220" stroke-dasharray="0" marker-end="" style="pointer-events: none;"/></g><g transform="translate(190 220)" class="EdgeLabel"><g class="edge-handle"><rect class="EdgeLabel__outline" x="-41.25" y="-4.390625" rx="3" stroke="#738694" stroke-width=".8px" fill="white" width="82.5" height="8.78125"/><text text-anchor="middle" dy="1.4453125" class="EdgeLabel__text" fill="#738694" pointer-events="none" style="font-size: 5px; font-family: sans-serif;">Money Laundering exposed in 2015</text></g></g><g class="edge"><path stroke="rgba(0,0,0,0)" stroke-width="4" fill="none" d="M20 -80 L 130 -80" style="cursor: pointer;"/><path stroke="#738694" stroke-width="1" fill="none" d="M20 -80 L 130 -80" stroke-dasharray="0" marker-end="" style="pointer-events: none;"/></g><g transform="translate(75 -80)" class="EdgeLabel"><g class="edge-handle"><rect class="EdgeLabel__outline" x="-39.109375" y="-4.390625" rx="3" stroke="#738694" stroke-width=".8px" fill="white" width="78.21875" height="8.78125"/><text text-anchor="middle" dy="1.4453125" class="EdgeLabel__text" fill="#738694" pointer-events="none" style="font-size: 5px; font-family: sans-serif;">Supports Viafot in Dunarit Dispute</text></g></g><g class="edge"><path stroke="rgba(0,0,0,0)" stroke-width="4" fill="none" d="M130 -140 L 130 -200" style="cursor: pointer;"/><path stroke="#738694" stroke-width="1" fill="none" d="M130 -140 L 130 -200" stroke-dasharray="0" marker-end="url(#arrow)" style="pointer-events: none;"/></g><g transform="translate(130 -170)" class="EdgeLabel"><g class="edge-handle"><rect class="EdgeLabel__outline" x="-9.5625" y="-4.390625" rx="3" stroke="#738694" stroke-width=".8px" fill="white" width="19.125" height="8.78125"/><text text-anchor="middle" dy="1.4453125" class="EdgeLabel__text" fill="#738694" pointer-events="none" style="font-size: 5px; font-family: sans-serif;">Lawyer</text></g></g><g class="edge"><path stroke="rgba(0,0,0,0)" stroke-width="4" fill="none" d="M130 -140 L 130 -80" style="cursor: pointer;"/><path stroke="#738694" stroke-width="1" fill="none" d="M130 -140 L 130 -80" stroke-dasharray="0" marker-end="url(#arrow)" style="pointer-events: none;"/></g><g transform="translate(130 -110)" class="EdgeLabel"><g class="edge-handle"><rect class="EdgeLabel__outline" x="-13.453125" y="-4.390625" rx="3" stroke="#738694" stroke-width=".8px" fill="white" width="26.90625" height="8.78125"/><text text-anchor="middle" dy="1.4453125" class="EdgeLabel__text" fill="#738694" pointer-events="none" style="font-size: 5px; font-family: sans-serif;">Ownership</text></g></g><g class="edge"><path stroke="rgba(0,0,0,0)" stroke-width="4" fill="none" d="M130 -80 L 240 -80" style="cursor: pointer;"/><path stroke="#738694" stroke-width="1" fill="none" d="M130 -80 L 240 -80" stroke-dasharray="0" marker-end="" style="pointer-events: none;"/></g><g transform="translate(185 -80)" class="EdgeLabel"><g class="edge-handle"><rect class="EdgeLabel__outline" x="-25.6875" y="-4.390625" rx="3" stroke="#738694" stroke-width=".8px" fill="white" width="51.375" height="8.78125"/><text text-anchor="middle" dy="1.4453125" class="EdgeLabel__text" fill="#738694" pointer-events="none" style="font-size: 5px; font-family: sans-serif;">Pretending ownership</text></g></g><g class="edge"><path stroke="rgba(0,0,0,0)" stroke-width="4" fill="none" d="M240 20 L 240 -80" style="cursor: pointer;"/><path stroke="#738694" stroke-width="1" fill="none" d="M240 20 L 240 -80" stroke-dasharray="0" marker-end="" style="pointer-events: none;"/></g><g transform="translate(240 -30)" class="EdgeLabel"><g class="edge-handle"><rect class="EdgeLabel__outline" x="-25.6875" y="-4.390625" rx="3" stroke="#738694" stroke-width=".8px" fill="white" width="51.375" height="8.78125"/><text text-anchor="middle" dy="1.4453125" class="EdgeLabel__text" fill="#738694" pointer-events="none" style="font-size: 5px; font-family: sans-serif;">Pretending ownership</text></g></g><g class="edge"><path stroke="rgba(0,0,0,0)" stroke-width="4" fill="none" d="M240 20 L 130 20" style="cursor: pointer;"/><path stroke="#738694" stroke-width="1" fill="none" d="M240 20 L 130 20" stroke-dasharray="0" marker-end="" style="pointer-events: none;"/></g><g transform="translate(185 20)" class="EdgeLabel"><g class="edge-handle"><rect class="EdgeLabel__outline" x="-30.828125" y="-4.390625" rx="3" stroke="#738694" stroke-width=".8px" fill="white" width="61.65625" height="8.78125"/><text text-anchor="middle" dy="1.4453125" class="EdgeLabel__text" fill="#738694" pointer-events="none" style="font-size: 5px; font-family: sans-serif;">Poisoned on 25 Arpil 2015</text></g></g><g class="edge"><path stroke="rgba(0,0,0,0)" stroke-width="4" fill="none" d="M20 -80 L 20 -140" style="cursor: pointer;"/><path stroke="#738694" stroke-width="1" fill="none" d="M20 -80 L 20 -140" stroke-dasharray="0" marker-end="url(#arrow)" style="pointer-events: none;"/></g><g transform="translate(20 -110)" class="EdgeLabel"><g class="edge-handle"><rect class="EdgeLabel__outline" x="-24.015625" y="-4.390625" rx="3" stroke="#738694" stroke-width=".8px" fill="white" width="48.03125" height="8.78125"/><text text-anchor="middle" dy="1.4453125" class="EdgeLabel__text" fill="#738694" pointer-events="none" style="font-size: 5px; font-family: sans-serif;">Shareholder in 2015</text></g></g><g class="edge"><path stroke="rgba(0,0,0,0)" stroke-width="4" fill="none" d="M20 20 L 130 20" style="cursor: pointer;"/><path stroke="#738694" stroke-width="1" fill="none" d="M20 20 L 130 20" stroke-dasharray="0" marker-end="" style="pointer-events: none;"/></g><g transform="translate(75 20)" class="EdgeLabel"><g class="edge-handle"><rect class="EdgeLabel__outline" x="-19.984375" y="-4.390625" rx="3" stroke="#738694" stroke-width=".8px" fill="white" width="39.96875" height="8.78125"/><text text-anchor="middle" dy="1.4453125" class="EdgeLabel__text" fill="#738694" pointer-events="none" style="font-size: 5px; font-family: sans-serif;">Fake documents</text></g></g><g class="edge"><path stroke="rgba(0,0,0,0)" stroke-width="4" fill="none" d="M20 150 L -100 220" style="cursor: pointer;"/><path stroke="#738694" stroke-width="1" fill="none" d="M20 150 L -100 220" stroke-dasharray="0" marker-end="url(#arrow)" style="pointer-events: none;"/></g><g transform="translate(-40 185)" class="EdgeLabel"><g class="edge-handle"><rect class="EdgeLabel__outline" x="-28.3125" y="-4.390625" rx="3" stroke="#738694" stroke-width=".8px" fill="white" width="56.625" height="8.78125"/><text text-anchor="middle" dy="1.4453125" class="EdgeLabel__text" fill="#738694" pointer-events="none" style="font-size: 5px; font-family: sans-serif;">Identified shell company</text></g></g><g class="edge"><path stroke="rgba(0,0,0,0)" stroke-width="4" fill="none" d="M250 220 L 130 280" style="cursor: pointer;"/><path stroke="#738694" stroke-width="1" fill="none" d="M250 220 L 130 280" stroke-dasharray="0" marker-end="" style="pointer-events: none;"/></g><g transform="translate(190 250)" class="EdgeLabel"><g class="edge-handle"><rect class="EdgeLabel__outline" x="-26.65625" y="-4.390625" rx="3" stroke="#738694" stroke-width=".8px" fill="white" width="53.3125" height="8.78125"/><text text-anchor="middle" dy="1.4453125" class="EdgeLabel__text" fill="#738694" pointer-events="none" style="font-size: 5px; font-family: sans-serif;">Same shell companies</text></g></g><g class="edge"><path stroke="rgba(0,0,0,0)" stroke-width="4" fill="none" d="M-100 220 L 20 280" style="cursor: pointer;"/><path stroke="#738694" stroke-width="1" fill="none" d="M-100 220 L 20 280" stroke-dasharray="0" marker-end="" style="pointer-events: none;"/></g><g transform="translate(-40 250)" class="EdgeLabel"><g class="edge-handle"><rect class="EdgeLabel__outline" x="-8.875" y="-4.390625" rx="3" stroke="#738694" stroke-width=".8px" fill="white" width="17.75" height="8.78125"/><text text-anchor="middle" dy="1.4453125" class="EdgeLabel__text" fill="#738694" pointer-events="none" style="font-size: 5px; font-family: sans-serif;">Part of</text></g></g><g class="edge"><path stroke="rgba(0,0,0,0)" stroke-width="4" fill="none" d="M20 280 L 130 280" style="cursor: pointer;"/><path stroke="#738694" stroke-width="1" fill="none" d="M20 280 L 130 280" stroke-dasharray="0" marker-end="" style="pointer-events: none;"/></g><g transform="translate(75 280)" class="EdgeLabel"><g class="edge-handle"><rect class="EdgeLabel__outline" x="-26.65625" y="-4.390625" rx="3" stroke="#738694" stroke-width=".8px" fill="white" width="53.3125" height="8.78125"/><text text-anchor="middle" dy="1.4453125" class="EdgeLabel__text" fill="#738694" pointer-events="none" style="font-size: 5px; font-family: sans-serif;">Same shell companies</text></g></g><g class="vertex" transform="translate(20 -30)" style="cursor: pointer; pointer-events: auto;"><circle class="handle" r="10" fill="#A82A2A" stroke="none"/><text x="0" y="15" text-anchor="middle" alignment-baseline="middle" filter="url(#solid)" pointer-events="none" fill="#A82A2A" style="font-size: 5px; font-family: sans-serif; font-weight: bold;">Dobrin Ivanov</text><g transform="scale(0.5)translate(-12 -12)" fill="#FFFFFF" pointer-events="none"><path d="M12 11a3 3 0 100-6 3 3 0 000 6zm0 1a4 4 0 110-8 4 4 0 010 8z"/><path d="M12 23c6.075 0 11-4.925 11-11S18.075 1 12 1 1 5.925 1 12s4.925 11 11 11zm0 1C5.373 24 0 18.627 0 12S5.373 0 12 0s12 5.373 12 12-5.373 12-12 12z"/><path d="M6.26 22.541L6 22.399V16a4 4 0 014-4h4a4 4 0 014 4v6.399l-.26.142A11.946 11.946 0 0112 24c-2.022 0-3.984-.5-5.74-1.459zm.74-.74C8.541 22.589 10.245 23 12 23s3.459-.41 5-1.2V16a3 3 0 00-3-3h-4a3 3 0 00-3 3v5.8z"/></g></g><g class="vertex" transform="translate(130 -200)" style="cursor: pointer; pointer-events: auto;"><circle class="handle" r="10" fill="#0E5A8A" stroke="none"/><text x="0" y="15" text-anchor="middle" alignment-baseline="middle" filter="url(#solid)" pointer-events="none" fill="#0E5A8A" style="font-size: 5px; font-family: sans-serif; font-weight: bold;">MP Delyan Peevski</text><g transform="scale(0.5)translate(-12 -12)" fill="#FFFFFF" pointer-events="none"><path d="M12 11a3 3 0 100-6 3 3 0 000 6zm0 1a4 4 0 110-8 4 4 0 010 8z"/><path d="M12 23c6.075 0 11-4.925 11-11S18.075 1 12 1 1 5.925 1 12s4.925 11 11 11zm0 1C5.373 24 0 18.627 0 12S5.373 0 12 0s12 5.373 12 12-5.373 12-12 12z"/><path d="M6.26 22.541L6 22.399V16a4 4 0 014-4h4a4 4 0 014 4v6.399l-.26.142A11.946 11.946 0 0112 24c-2.022 0-3.984-.5-5.74-1.459zm.74-.74C8.541 22.589 10.245 23 12 23s3.459-.41 5-1.2V16a3 3 0 00-3-3h-4a3 3 0 00-3 3v5.8z"/></g></g><g class="vertex" transform="translate(20 220)" style="cursor: pointer; pointer-events: auto;"><circle class="handle" r="10" fill="#0E5A8A" stroke="none"/><text x="0" y="15" text-anchor="middle" alignment-baseline="middle" filter="url(#solid)" pointer-events="none" fill="#0E5A8A" style="font-size: 5px; font-family: sans-serif; font-weight: bold;">Investbank BG13IORT80481187649…</text><g transform="scale(0.5)translate(-12 -12)" fill="#FFFFFF" pointer-events="none"><path d="M10.086 20.739v-.945c.64.267 1.185.4 1.638.4.528 0 .793-.18.793-.54 0-.232-.218-.435-.654-.61l-.435-.174c-.474-.191-.812-.398-1.015-.618a1.163 1.163 0 01-.305-.82c0-.452.173-.804.518-1.055.346-.251.83-.377 1.45-.377.39 0 .853.057 1.39.17v.906c-.517-.18-.945-.27-1.285-.27-.534 0-.801.165-.801.496 0 .218.197.402.592.553l.375.144c.56.212.95.427 1.17.645.218.217.328.498.328.84 0 .45-.187.816-.56 1.096-.373.28-.858.42-1.457.42a6.095 6.095 0 01-1.742-.261z"/><path d="M12 15a.5.5 0 01.5.5v.5a.5.5 0 01-1 0v-.5a.5.5 0 01.5-.5zM12 20.5a.5.5 0 01.5.5v.5a.5.5 0 01-1 0V21a.5.5 0 01.5-.5z"/><path d="M23 23h1v1H0v-1h1V12H0V9h3V6h5a4.002 4.002 0 012.983-3.87L12 0l1.017 2.13A4.002 4.002 0 0116 6h5v3h3v3h-1v11zm-1 0V12h-3.342l2.05 2H19v9h3zm-4 0v-9h-1v9h1zm-2 0v-9H8v9h8zm-9 0v-9H6v9h1zm-2 0v-9H3.293l2.049-2H2v11h3zM9 6h2.488L12 5.5l.512.5H15a3 3 0 00-6 0zm6 1h-1.463l2.048 2H20V7h-5zM8 7H4v2h4.415l2.048-2H8zm13 3h-1v1h1v-1zM3 10v1h1v-1H3zm19 1h1v-1h-1v1zM2 11v-1H1v1h1zm17 0v-1h-2.39l1.024 1H19zM5 11h1.366l1.024-1H5v1zm11.67 2h1.623L12 7l-6.293 6h1.624L12 8.5l4.67 4.5zm-7.963 0h6.586L12 10l-3.293 3zM3 15h1v3H3v-3zm17 0h1v3h-1v-3z"/></g></g><g class="vertex" transform="translate(130 220)" style="cursor: pointer; pointer-events: auto;"><circle class="handle" r="10" fill="#0E5A8A" stroke="none"/><text x="0" y="15" text-anchor="middle" alignment-baseline="middle" filter="url(#solid)" pointer-events="none" fill="#0E5A8A" style="font-size: 5px; font-family: sans-serif; font-weight: bold;">Castlefront L.P.</text><g transform="scale(0.5)translate(-12 -12)" fill="#FFFFFF" pointer-events="none"><path d="M1 5v18h7V5H1zm0-1h8v20H1a1 1 0 01-1-1V5a1 1 0 011-1z"/><path d="M9 22v1h6v-1H9zm-1-1h8v3H8v-3z"/><path d="M9 1v20h6V1H9zm0-1h6a1 1 0 011 1v21H8V1a1 1 0 011-1z"/><path d="M11 3v1h2V3h-2zm0-1h2a1 1 0 011 1v1a1 1 0 01-1 1h-2a1 1 0 01-1-1V3a1 1 0 011-1zM11 7v1h2V7h-2zm0-1h2a1 1 0 011 1v1a1 1 0 01-1 1h-2a1 1 0 01-1-1V7a1 1 0 011-1zM11 11v1h2v-1h-2zm0-1h2a1 1 0 011 1v1a1 1 0 01-1 1h-2a1 1 0 01-1-1v-1a1 1 0 011-1zM3 8h1V7H3v1zm0-2h1a1 1 0 011 1v1a1 1 0 01-1 1H3a1 1 0 01-1-1V7a1 1 0 011-1zM7 8h1V7H7v1zm0-2h1a1 1 0 011 1v1a1 1 0 01-1 1H7a1 1 0 01-1-1V7a1 1 0 011-1zM3 12h1v-1H3v1zm0-2h1a1 1 0 011 1v1a1 1 0 01-1 1H3a1 1 0 01-1-1v-1a1 1 0 011-1zM7 12h1v-1H7v1zm0-2h1a1 1 0 011 1v1a1 1 0 01-1 1H7a1 1 0 01-1-1v-1a1 1 0 011-1zM3 16h1v-1H3v1zm0-2h1a1 1 0 011 1v1a1 1 0 01-1 1H3a1 1 0 01-1-1v-1a1 1 0 011-1zM7 16h1v-1H7v1zm0-2h1a1 1 0 011 1v1a1 1 0 01-1 1H7a1 1 0 01-1-1v-1a1 1 0 011-1zM3 20h1v-1H3v1zm0-2h1a1 1 0 011 1v1a1 1 0 01-1 1H3a1 1 0 01-1-1v-1a1 1 0 011-1zM7 20h1v-1H7v1zm0-2h1a1 1 0 011 1v1a1 1 0 01-1 1H7a1 1 0 01-1-1v-1a1 1 0 011-1zM16 20h1v-1h-1v1zm0-2h1a1 1 0 011 1v1a1 1 0 01-1 1h-1a1 1 0 01-1-1v-1a1 1 0 011-1zM20 20h1v-1h-1v1zm0-2h1a1 1 0 011 1v1a1 1 0 01-1 1h-1a1 1 0 01-1-1v-1a1 1 0 011-1zM20 16h1v-1h-1v1zm0-2h1a1 1 0 011 1v1a1 1 0 01-1 1h-1a1 1 0 01-1-1v-1a1 1 0 011-1zM16 16h1v-1h-1v1zm0-2h1a1 1 0 011 1v1a1 1 0 01-1 1h-1a1 1 0 01-1-1v-1a1 1 0 011-1zM16 12h1v-1h-1v1zm0-2h1a1 1 0 011 1v1a1 1 0 01-1 1h-1a1 1 0 01-1-1v-1a1 1 0 011-1zM20 12h1v-1h-1v1zm0-2h1a1 1 0 011 1v1a1 1 0 01-1 1h-1a1 1 0 01-1-1v-1a1 1 0 011-1zM20 8h1V7h-1v1zm0-2h1a1 1 0 011 1v1a1 1 0 01-1 1h-1a1 1 0 01-1-1V7a1 1 0 011-1zM16 8h1V7h-1v1zm0-2h1a1 1 0 011 1v1a1 1 0 01-1 1h-1a1 1 0 01-1-1V7a1 1 0 011-1zM11 15v1h2v-1h-2zm0-1h2a1 1 0 011 1v1a1 1 0 01-1 1h-2a1 1 0 01-1-1v-1a1 1 0 011-1zM11 19v2h2v-2h-2zm0-1h2a1 1 0 011 1v3h-4v-3a1 1 0 011-1z"/><path d="M16 5v18h7V5h-7zm0-1h7a1 1 0 011 1v18a1 1 0 01-1 1h-8V5a1 1 0 011-1z"/></g></g><g class="vertex" transform="translate(20 20)" style="cursor: pointer; pointer-events: auto;"><circle class="handle" r="10" fill="#0E5A8A" stroke="none"/><text x="0" y="15" text-anchor="middle" alignment-baseline="middle" filter="url(#solid)" pointer-events="none" fill="#0E5A8A" style="font-size: 5px; font-family: sans-serif; font-weight: bold;">Transmobile EOOD</text><g transform="scale(0.5)translate(-12 -12)" fill="#FFFFFF" pointer-events="none"><path d="M1 5v18h7V5H1zm0-1h8v20H1a1 1 0 01-1-1V5a1 1 0 011-1z"/><path d="M9 22v1h6v-1H9zm-1-1h8v3H8v-3z"/><path d="M9 1v20h6V1H9zm0-1h6a1 1 0 011 1v21H8V1a1 1 0 011-1z"/><path d="M11 3v1h2V3h-2zm0-1h2a1 1 0 011 1v1a1 1 0 01-1 1h-2a1 1 0 01-1-1V3a1 1 0 011-1zM11 7v1h2V7h-2zm0-1h2a1 1 0 011 1v1a1 1 0 01-1 1h-2a1 1 0 01-1-1V7a1 1 0 011-1zM11 11v1h2v-1h-2zm0-1h2a1 1 0 011 1v1a1 1 0 01-1 1h-2a1 1 0 01-1-1v-1a1 1 0 011-1zM3 8h1V7H3v1zm0-2h1a1 1 0 011 1v1a1 1 0 01-1 1H3a1 1 0 01-1-1V7a1 1 0 011-1zM7 8h1V7H7v1zm0-2h1a1 1 0 011 1v1a1 1 0 01-1 1H7a1 1 0 01-1-1V7a1 1 0 011-1zM3 12h1v-1H3v1zm0-2h1a1 1 0 011 1v1a1 1 0 01-1 1H3a1 1 0 01-1-1v-1a1 1 0 011-1zM7 12h1v-1H7v1zm0-2h1a1 1 0 011 1v1a1 1 0 01-1 1H7a1 1 0 01-1-1v-1a1 1 0 011-1zM3 16h1v-1H3v1zm0-2h1a1 1 0 011 1v1a1 1 0 01-1 1H3a1 1 0 01-1-1v-1a1 1 0 011-1zM7 16h1v-1H7v1zm0-2h1a1 1 0 011 1v1a1 1 0 01-1 1H7a1 1 0 01-1-1v-1a1 1 0 011-1zM3 20h1v-1H3v1zm0-2h1a1 1 0 011 1v1a1 1 0 01-1 1H3a1 1 0 01-1-1v-1a1 1 0 011-1zM7 20h1v-1H7v1zm0-2h1a1 1 0 011 1v1a1 1 0 01-1 1H7a1 1 0 01-1-1v-1a1 1 0 011-1zM16 20h1v-1h-1v1zm0-2h1a1 1 0 011 1v1a1 1 0 01-1 1h-1a1 1 0 01-1-1v-1a1 1 0 011-1zM20 20h1v-1h-1v1zm0-2h1a1 1 0 011 1v1a1 1 0 01-1 1h-1a1 1 0 01-1-1v-1a1 1 0 011-1zM20 16h1v-1h-1v1zm0-2h1a1 1 0 011 1v1a1 1 0 01-1 1h-1a1 1 0 01-1-1v-1a1 1 0 011-1zM16 16h1v-1h-1v1zm0-2h1a1 1 0 011 1v1a1 1 0 01-1 1h-1a1 1 0 01-1-1v-1a1 1 0 011-1zM16 12h1v-1h-1v1zm0-2h1a1 1 0 011 1v1a1 1 0 01-1 1h-1a1 1 0 01-1-1v-1a1 1 0 011-1zM20 12h1v-1h-1v1zm0-2h1a1 1 0 011 1v1a1 1 0 01-1 1h-1a1 1 0 01-1-1v-1a1 1 0 011-1zM20 8h1V7h-1v1zm0-2h1a1 1 0 011 1v1a1 1 0 01-1 1h-1a1 1 0 01-1-1V7a1 1 0 011-1zM16 8h1V7h-1v1zm0-2h1a1 1 0 011 1v1a1 1 0 01-1 1h-1a1 1 0 01-1-1V7a1 1 0 011-1zM11 15v1h2v-1h-2zm0-1h2a1 1 0 011 1v1a1 1 0 01-1 1h-2a1 1 0 01-1-1v-1a1 1 0 011-1zM11 19v2h2v-2h-2zm0-1h2a1 1 0 011 1v3h-4v-3a1 1 0 011-1z"/><path d="M16 5v18h7V5h-7zm0-1h7a1 1 0 011 1v18a1 1 0 01-1 1h-8V5a1 1 0 011-1z"/></g></g><g class="vertex" transform="translate(20 -140)" style="cursor: pointer; pointer-events: auto;"><circle class="handle" r="10" fill="#0E5A8A" stroke="none"/><text x="0" y="15" text-anchor="middle" alignment-baseline="middle" filter="url(#solid)" pointer-events="none" fill="#0E5A8A" style="font-size: 5px; font-family: sans-serif; font-weight: bold;">Televisia Evropa AD</text><g transform="scale(0.5)translate(-12 -12)" fill="#FFFFFF" pointer-events="none"><path d="M1 5v18h7V5H1zm0-1h8v20H1a1 1 0 01-1-1V5a1 1 0 011-1z"/><path d="M9 22v1h6v-1H9zm-1-1h8v3H8v-3z"/><path d="M9 1v20h6V1H9zm0-1h6a1 1 0 011 1v21H8V1a1 1 0 011-1z"/><path d="M11 3v1h2V3h-2zm0-1h2a1 1 0 011 1v1a1 1 0 01-1 1h-2a1 1 0 01-1-1V3a1 1 0 011-1zM11 7v1h2V7h-2zm0-1h2a1 1 0 011 1v1a1 1 0 01-1 1h-2a1 1 0 01-1-1V7a1 1 0 011-1zM11 11v1h2v-1h-2zm0-1h2a1 1 0 011 1v1a1 1 0 01-1 1h-2a1 1 0 01-1-1v-1a1 1 0 011-1zM3 8h1V7H3v1zm0-2h1a1 1 0 011 1v1a1 1 0 01-1 1H3a1 1 0 01-1-1V7a1 1 0 011-1zM7 8h1V7H7v1zm0-2h1a1 1 0 011 1v1a1 1 0 01-1 1H7a1 1 0 01-1-1V7a1 1 0 011-1zM3 12h1v-1H3v1zm0-2h1a1 1 0 011 1v1a1 1 0 01-1 1H3a1 1 0 01-1-1v-1a1 1 0 011-1zM7 12h1v-1H7v1zm0-2h1a1 1 0 011 1v1a1 1 0 01-1 1H7a1 1 0 01-1-1v-1a1 1 0 011-1zM3 16h1v-1H3v1zm0-2h1a1 1 0 011 1v1a1 1 0 01-1 1H3a1 1 0 01-1-1v-1a1 1 0 011-1zM7 16h1v-1H7v1zm0-2h1a1 1 0 011 1v1a1 1 0 01-1 1H7a1 1 0 01-1-1v-1a1 1 0 011-1zM3 20h1v-1H3v1zm0-2h1a1 1 0 011 1v1a1 1 0 01-1 1H3a1 1 0 01-1-1v-1a1 1 0 011-1zM7 20h1v-1H7v1zm0-2h1a1 1 0 011 1v1a1 1 0 01-1 1H7a1 1 0 01-1-1v-1a1 1 0 011-1zM16 20h1v-1h-1v1zm0-2h1a1 1 0 011 1v1a1 1 0 01-1 1h-1a1 1 0 01-1-1v-1a1 1 0 011-1zM20 20h1v-1h-1v1zm0-2h1a1 1 0 011 1v1a1 1 0 01-1 1h-1a1 1 0 01-1-1v-1a1 1 0 011-1zM20 16h1v-1h-1v1zm0-2h1a1 1 0 011 1v1a1 1 0 01-1 1h-1a1 1 0 01-1-1v-1a1 1 0 011-1zM16 16h1v-1h-1v1zm0-2h1a1 1 0 011 1v1a1 1 0 01-1 1h-1a1 1 0 01-1-1v-1a1 1 0 011-1zM16 12h1v-1h-1v1zm0-2h1a1 1 0 011 1v1a1 1 0 01-1 1h-1a1 1 0 01-1-1v-1a1 1 0 011-1zM20 12h1v-1h-1v1zm0-2h1a1 1 0 011 1v1a1 1 0 01-1 1h-1a1 1 0 01-1-1v-1a1 1 0 011-1zM20 8h1V7h-1v1zm0-2h1a1 1 0 011 1v1a1 1 0 01-1 1h-1a1 1 0 01-1-1V7a1 1 0 011-1zM16 8h1V7h-1v1zm0-2h1a1 1 0 011 1v1a1 1 0 01-1 1h-1a1 1 0 01-1-1V7a1 1 0 011-1zM11 15v1h2v-1h-2zm0-1h2a1 1 0 011 1v1a1 1 0 01-1 1h-2a1 1 0 01-1-1v-1a1 1 0 011-1zM11 19v2h2v-2h-2zm0-1h2a1 1 0 011 1v3h-4v-3a1 1 0 011-1z"/><path d="M16 5v18h7V5h-7zm0-1h7a1 1 0 011 1v18a1 1 0 01-1 1h-8V5a1 1 0 011-1z"/></g></g><g class="vertex" transform="translate(130 20)" style="cursor: pointer; pointer-events: auto;"><circle class="handle" r="10" fill="#0E5A8A" stroke="none"/><text x="0" y="15" text-anchor="middle" alignment-baseline="middle" filter="url(#solid)" pointer-events="none" fill="#0E5A8A" style="font-size: 5px; font-family: sans-serif; font-weight: bold;">Poisoning with Novichok</text><g transform="scale(0.5)translate(-12 -12)" fill="#FFFFFF" pointer-events="none"><path d="M1 23h13a2 2 0 00-2-2H3a2 2 0 00-2 2zm2-3h9a3 3 0 013 3v1H0v-1a3 3 0 013-3zM2.5 3a.5.5 0 000 1h10a.5.5 0 100-1h-10zm0-1h10a1.5 1.5 0 010 3h-10a1.5 1.5 0 010-3zM2.5 16a.5.5 0 100 1h10a.5.5 0 100-1h-10zm0-1h10a1.5 1.5 0 010 3h-10a1.5 1.5 0 010-3z"/><path d="M4.5 5a.5.5 0 00-.5.5v9a.5.5 0 00.5.5h6a.5.5 0 00.5-.5v-9a.5.5 0 00-.5-.5h-6zm0-1h6A1.5 1.5 0 0112 5.5v9a1.5 1.5 0 01-1.5 1.5h-6A1.5 1.5 0 013 14.5v-9A1.5 1.5 0 014.5 4z"/><path d="M12 9v2h12V9H12zm-1-1h14v4H11V8z"/></g></g><g class="vertex" transform="translate(240 20)" style="cursor: pointer; pointer-events: auto;"><circle class="handle" r="10" fill="#0E5A8A" stroke="none"/><text x="0" y="15" text-anchor="middle" alignment-baseline="middle" filter="url(#solid)" pointer-events="none" fill="#0E5A8A" style="font-size: 5px; font-family: sans-serif; font-weight: bold;">Emilian Gebrev</text><g transform="scale(0.5)translate(-12 -12)" fill="#FFFFFF" pointer-events="none"><path d="M12 11a3 3 0 100-6 3 3 0 000 6zm0 1a4 4 0 110-8 4 4 0 010 8z"/><path d="M12 23c6.075 0 11-4.925 11-11S18.075 1 12 1 1 5.925 1 12s4.925 11 11 11zm0 1C5.373 24 0 18.627 0 12S5.373 0 12 0s12 5.373 12 12-5.373 12-12 12z"/><path d="M6.26 22.541L6 22.399V16a4 4 0 014-4h4a4 4 0 014 4v6.399l-.26.142A11.946 11.946 0 0112 24c-2.022 0-3.984-.5-5.74-1.459zm.74-.74C8.541 22.589 10.245 23 12 23s3.459-.41 5-1.2V16a3 3 0 00-3-3h-4a3 3 0 00-3 3v5.8z"/></g></g><g class="vertex" transform="translate(20 -80)" style="cursor: pointer; pointer-events: auto;"><circle class="handle" r="10" fill="#0E5A8A" stroke="none"/><text x="0" y="15" text-anchor="middle" alignment-baseline="middle" filter="url(#solid)" pointer-events="none" fill="#0E5A8A" style="font-size: 5px; font-family: sans-serif; font-weight: bold;">Dipi</text><g transform="scale(0.5)translate(-12 -12)" fill="#FFFFFF" pointer-events="none"><path d="M1 5v18h7V5H1zm0-1h8v20H1a1 1 0 01-1-1V5a1 1 0 011-1z"/><path d="M9 22v1h6v-1H9zm-1-1h8v3H8v-3z"/><path d="M9 1v20h6V1H9zm0-1h6a1 1 0 011 1v21H8V1a1 1 0 011-1z"/><path d="M11 3v1h2V3h-2zm0-1h2a1 1 0 011 1v1a1 1 0 01-1 1h-2a1 1 0 01-1-1V3a1 1 0 011-1zM11 7v1h2V7h-2zm0-1h2a1 1 0 011 1v1a1 1 0 01-1 1h-2a1 1 0 01-1-1V7a1 1 0 011-1zM11 11v1h2v-1h-2zm0-1h2a1 1 0 011 1v1a1 1 0 01-1 1h-2a1 1 0 01-1-1v-1a1 1 0 011-1zM3 8h1V7H3v1zm0-2h1a1 1 0 011 1v1a1 1 0 01-1 1H3a1 1 0 01-1-1V7a1 1 0 011-1zM7 8h1V7H7v1zm0-2h1a1 1 0 011 1v1a1 1 0 01-1 1H7a1 1 0 01-1-1V7a1 1 0 011-1zM3 12h1v-1H3v1zm0-2h1a1 1 0 011 1v1a1 1 0 01-1 1H3a1 1 0 01-1-1v-1a1 1 0 011-1zM7 12h1v-1H7v1zm0-2h1a1 1 0 011 1v1a1 1 0 01-1 1H7a1 1 0 01-1-1v-1a1 1 0 011-1zM3 16h1v-1H3v1zm0-2h1a1 1 0 011 1v1a1 1 0 01-1 1H3a1 1 0 01-1-1v-1a1 1 0 011-1zM7 16h1v-1H7v1zm0-2h1a1 1 0 011 1v1a1 1 0 01-1 1H7a1 1 0 01-1-1v-1a1 1 0 011-1zM3 20h1v-1H3v1zm0-2h1a1 1 0 011 1v1a1 1 0 01-1 1H3a1 1 0 01-1-1v-1a1 1 0 011-1zM7 20h1v-1H7v1zm0-2h1a1 1 0 011 1v1a1 1 0 01-1 1H7a1 1 0 01-1-1v-1a1 1 0 011-1zM16 20h1v-1h-1v1zm0-2h1a1 1 0 011 1v1a1 1 0 01-1 1h-1a1 1 0 01-1-1v-1a1 1 0 011-1zM20 20h1v-1h-1v1zm0-2h1a1 1 0 011 1v1a1 1 0 01-1 1h-1a1 1 0 01-1-1v-1a1 1 0 011-1zM20 16h1v-1h-1v1zm0-2h1a1 1 0 011 1v1a1 1 0 01-1 1h-1a1 1 0 01-1-1v-1a1 1 0 011-1zM16 16h1v-1h-1v1zm0-2h1a1 1 0 011 1v1a1 1 0 01-1 1h-1a1 1 0 01-1-1v-1a1 1 0 011-1zM16 12h1v-1h-1v1zm0-2h1a1 1 0 011 1v1a1 1 0 01-1 1h-1a1 1 0 01-1-1v-1a1 1 0 011-1zM20 12h1v-1h-1v1zm0-2h1a1 1 0 011 1v1a1 1 0 01-1 1h-1a1 1 0 01-1-1v-1a1 1 0 011-1zM20 8h1V7h-1v1zm0-2h1a1 1 0 011 1v1a1 1 0 01-1 1h-1a1 1 0 01-1-1V7a1 1 0 011-1zM16 8h1V7h-1v1zm0-2h1a1 1 0 011 1v1a1 1 0 01-1 1h-1a1 1 0 01-1-1V7a1 1 0 011-1zM11 15v1h2v-1h-2zm0-1h2a1 1 0 011 1v1a1 1 0 01-1 1h-2a1 1 0 01-1-1v-1a1 1 0 011-1zM11 19v2h2v-2h-2zm0-1h2a1 1 0 011 1v3h-4v-3a1 1 0 011-1z"/><path d="M16 5v18h7V5h-7zm0-1h7a1 1 0 011 1v18a1 1 0 01-1 1h-8V5a1 1 0 011-1z"/></g></g><g class="vertex" transform="translate(20 -200)" style="cursor: pointer; pointer-events: auto;"><circle class="handle" r="10" fill="#0E5A8A" stroke="none"/><text x="0" y="15" text-anchor="middle" alignment-baseline="middle" filter="url(#solid)" pointer-events="none" fill="#0E5A8A" style="font-size: 5px; font-family: sans-serif; font-weight: bold;">GERB Ruling Party</text><g transform="scale(0.5)translate(-12 -12)" fill="#FFFFFF" pointer-events="none"><path d="M12.5 4a1.5 1.5 0 100-3 1.5 1.5 0 000 3zm0 1a2.5 2.5 0 110-5 2.5 2.5 0 010 5zM12.5 13a1.5 1.5 0 100-3 1.5 1.5 0 000 3zm0 1a2.5 2.5 0 110-5 2.5 2.5 0 010 5zM21.5 13a1.5 1.5 0 100-3 1.5 1.5 0 000 3zm0 1a2.5 2.5 0 110-5 2.5 2.5 0 010 5zM2.5 13a1.5 1.5 0 100-3 1.5 1.5 0 000 3zm0 1a2.5 2.5 0 110-5 2.5 2.5 0 010 5zM2.5 23a1.5 1.5 0 100-3 1.5 1.5 0 000 3zm0 1a2.5 2.5 0 110-5 2.5 2.5 0 010 5zM8.5 23a1.5 1.5 0 100-3 1.5 1.5 0 000 3zm0 1a2.5 2.5 0 110-5 2.5 2.5 0 010 5zM15.5 23a1.5 1.5 0 100-3 1.5 1.5 0 000 3zm0 1a2.5 2.5 0 110-5 2.5 2.5 0 010 5zM21.5 23a1.5 1.5 0 100-3 1.5 1.5 0 000 3zm0 1a2.5 2.5 0 110-5 2.5 2.5 0 010 5z"/><path d="M12 4h1v6h-1zM11 11v1H4v-1zM2 13h1v7H2zM8 16h1v4H8z"/><path d="M8 17v-1h8v1z"/><path d="M15 16h1v4h-1zM21 13h1v7h-1zM14 3V2h8v1z"/><path d="M21 2h1v8h-1zM12 13h1v4h-1z"/></g></g><g class="vertex" transform="translate(20 150)" style="cursor: pointer; pointer-events: auto;"><circle class="handle" r="10" fill="#0E5A8A" stroke="none"/><text x="0" y="15" text-anchor="middle" alignment-baseline="middle" filter="url(#solid)" pointer-events="none" fill="#0E5A8A" style="font-size: 5px; font-family: sans-serif; font-weight: bold;">Solidstar Worldwide LLP</text><g transform="scale(0.5)translate(-12 -12)" fill="#FFFFFF" pointer-events="none"><path d="M1 5v18h7V5H1zm0-1h8v20H1a1 1 0 01-1-1V5a1 1 0 011-1z"/><path d="M9 22v1h6v-1H9zm-1-1h8v3H8v-3z"/><path d="M9 1v20h6V1H9zm0-1h6a1 1 0 011 1v21H8V1a1 1 0 011-1z"/><path d="M11 3v1h2V3h-2zm0-1h2a1 1 0 011 1v1a1 1 0 01-1 1h-2a1 1 0 01-1-1V3a1 1 0 011-1zM11 7v1h2V7h-2zm0-1h2a1 1 0 011 1v1a1 1 0 01-1 1h-2a1 1 0 01-1-1V7a1 1 0 011-1zM11 11v1h2v-1h-2zm0-1h2a1 1 0 011 1v1a1 1 0 01-1 1h-2a1 1 0 01-1-1v-1a1 1 0 011-1zM3 8h1V7H3v1zm0-2h1a1 1 0 011 1v1a1 1 0 01-1 1H3a1 1 0 01-1-1V7a1 1 0 011-1zM7 8h1V7H7v1zm0-2h1a1 1 0 011 1v1a1 1 0 01-1 1H7a1 1 0 01-1-1V7a1 1 0 011-1zM3 12h1v-1H3v1zm0-2h1a1 1 0 011 1v1a1 1 0 01-1 1H3a1 1 0 01-1-1v-1a1 1 0 011-1zM7 12h1v-1H7v1zm0-2h1a1 1 0 011 1v1a1 1 0 01-1 1H7a1 1 0 01-1-1v-1a1 1 0 011-1zM3 16h1v-1H3v1zm0-2h1a1 1 0 011 1v1a1 1 0 01-1 1H3a1 1 0 01-1-1v-1a1 1 0 011-1zM7 16h1v-1H7v1zm0-2h1a1 1 0 011 1v1a1 1 0 01-1 1H7a1 1 0 01-1-1v-1a1 1 0 011-1zM3 20h1v-1H3v1zm0-2h1a1 1 0 011 1v1a1 1 0 01-1 1H3a1 1 0 01-1-1v-1a1 1 0 011-1zM7 20h1v-1H7v1zm0-2h1a1 1 0 011 1v1a1 1 0 01-1 1H7a1 1 0 01-1-1v-1a1 1 0 011-1zM16 20h1v-1h-1v1zm0-2h1a1 1 0 011 1v1a1 1 0 01-1 1h-1a1 1 0 01-1-1v-1a1 1 0 011-1zM20 20h1v-1h-1v1zm0-2h1a1 1 0 011 1v1a1 1 0 01-1 1h-1a1 1 0 01-1-1v-1a1 1 0 011-1zM20 16h1v-1h-1v1zm0-2h1a1 1 0 011 1v1a1 1 0 01-1 1h-1a1 1 0 01-1-1v-1a1 1 0 011-1zM16 16h1v-1h-1v1zm0-2h1a1 1 0 011 1v1a1 1 0 01-1 1h-1a1 1 0 01-1-1v-1a1 1 0 011-1zM16 12h1v-1h-1v1zm0-2h1a1 1 0 011 1v1a1 1 0 01-1 1h-1a1 1 0 01-1-1v-1a1 1 0 011-1zM20 12h1v-1h-1v1zm0-2h1a1 1 0 011 1v1a1 1 0 01-1 1h-1a1 1 0 01-1-1v-1a1 1 0 011-1zM20 8h1V7h-1v1zm0-2h1a1 1 0 011 1v1a1 1 0 01-1 1h-1a1 1 0 01-1-1V7a1 1 0 011-1zM16 8h1V7h-1v1zm0-2h1a1 1 0 011 1v1a1 1 0 01-1 1h-1a1 1 0 01-1-1V7a1 1 0 011-1zM11 15v1h2v-1h-2zm0-1h2a1 1 0 011 1v1a1 1 0 01-1 1h-2a1 1 0 01-1-1v-1a1 1 0 011-1zM11 19v2h2v-2h-2zm0-1h2a1 1 0 011 1v3h-4v-3a1 1 0 011-1z"/><path d="M16 5v18h7V5h-7zm0-1h7a1 1 0 011 1v18a1 1 0 01-1 1h-8V5a1 1 0 011-1z"/></g></g><g class="vertex" transform="translate(20 90)" style="cursor: pointer; pointer-events: auto;"><circle class="handle" r="10" fill="#0E5A8A" stroke="none"/><text x="0" y="15" text-anchor="middle" alignment-baseline="middle" filter="url(#solid)" pointer-events="none" fill="#0E5A8A" style="font-size: 5px; font-family: sans-serif; font-weight: bold;">Investbank 
 BG20IORT804814205…</text><g transform="scale(0.5)translate(-12 -12)" fill="#FFFFFF" pointer-events="none"><path d="M10.086 20.739v-.945c.64.267 1.185.4 1.638.4.528 0 .793-.18.793-.54 0-.232-.218-.435-.654-.61l-.435-.174c-.474-.191-.812-.398-1.015-.618a1.163 1.163 0 01-.305-.82c0-.452.173-.804.518-1.055.346-.251.83-.377 1.45-.377.39 0 .853.057 1.39.17v.906c-.517-.18-.945-.27-1.285-.27-.534 0-.801.165-.801.496 0 .218.197.402.592.553l.375.144c.56.212.95.427 1.17.645.218.217.328.498.328.84 0 .45-.187.816-.56 1.096-.373.28-.858.42-1.457.42a6.095 6.095 0 01-1.742-.261z"/><path d="M12 15a.5.5 0 01.5.5v.5a.5.5 0 01-1 0v-.5a.5.5 0 01.5-.5zM12 20.5a.5.5 0 01.5.5v.5a.5.5 0 01-1 0V21a.5.5 0 01.5-.5z"/><path d="M23 23h1v1H0v-1h1V12H0V9h3V6h5a4.002 4.002 0 012.983-3.87L12 0l1.017 2.13A4.002 4.002 0 0116 6h5v3h3v3h-1v11zm-1 0V12h-3.342l2.05 2H19v9h3zm-4 0v-9h-1v9h1zm-2 0v-9H8v9h8zm-9 0v-9H6v9h1zm-2 0v-9H3.293l2.049-2H2v11h3zM9 6h2.488L12 5.5l.512.5H15a3 3 0 00-6 0zm6 1h-1.463l2.048 2H20V7h-5zM8 7H4v2h4.415l2.048-2H8zm13 3h-1v1h1v-1zM3 10v1h1v-1H3zm19 1h1v-1h-1v1zM2 11v-1H1v1h1zm17 0v-1h-2.39l1.024 1H19zM5 11h1.366l1.024-1H5v1zm11.67 2h1.623L12 7l-6.293 6h1.624L12 8.5l4.67 4.5zm-7.963 0h6.586L12 10l-3.293 3zM3 15h1v3H3v-3zm17 0h1v3h-1v-3z"/></g></g><g class="vertex" transform="translate(130 -80)" style="cursor: pointer; pointer-events: auto;"><circle class="handle" r="10" fill="#0E5A8A" stroke="none"/><text x="0" y="15" text-anchor="middle" alignment-baseline="middle" filter="url(#solid)" pointer-events="none" fill="#0E5A8A" style="font-size: 5px; font-family: sans-serif; font-weight: bold;">Viafot</text><g transform="scale(0.5)translate(-12 -12)" fill="#FFFFFF" pointer-events="none"><path d="M1 5v18h7V5H1zm0-1h8v20H1a1 1 0 01-1-1V5a1 1 0 011-1z"/><path d="M9 22v1h6v-1H9zm-1-1h8v3H8v-3z"/><path d="M9 1v20h6V1H9zm0-1h6a1 1 0 011 1v21H8V1a1 1 0 011-1z"/><path d="M11 3v1h2V3h-2zm0-1h2a1 1 0 011 1v1a1 1 0 01-1 1h-2a1 1 0 01-1-1V3a1 1 0 011-1zM11 7v1h2V7h-2zm0-1h2a1 1 0 011 1v1a1 1 0 01-1 1h-2a1 1 0 01-1-1V7a1 1 0 011-1zM11 11v1h2v-1h-2zm0-1h2a1 1 0 011 1v1a1 1 0 01-1 1h-2a1 1 0 01-1-1v-1a1 1 0 011-1zM3 8h1V7H3v1zm0-2h1a1 1 0 011 1v1a1 1 0 01-1 1H3a1 1 0 01-1-1V7a1 1 0 011-1zM7 8h1V7H7v1zm0-2h1a1 1 0 011 1v1a1 1 0 01-1 1H7a1 1 0 01-1-1V7a1 1 0 011-1zM3 12h1v-1H3v1zm0-2h1a1 1 0 011 1v1a1 1 0 01-1 1H3a1 1 0 01-1-1v-1a1 1 0 011-1zM7 12h1v-1H7v1zm0-2h1a1 1 0 011 1v1a1 1 0 01-1 1H7a1 1 0 01-1-1v-1a1 1 0 011-1zM3 16h1v-1H3v1zm0-2h1a1 1 0 011 1v1a1 1 0 01-1 1H3a1 1 0 01-1-1v-1a1 1 0 011-1zM7 16h1v-1H7v1zm0-2h1a1 1 0 011 1v1a1 1 0 01-1 1H7a1 1 0 01-1-1v-1a1 1 0 011-1zM3 20h1v-1H3v1zm0-2h1a1 1 0 011 1v1a1 1 0 01-1 1H3a1 1 0 01-1-1v-1a1 1 0 011-1zM7 20h1v-1H7v1zm0-2h1a1 1 0 011 1v1a1 1 0 01-1 1H7a1 1 0 01-1-1v-1a1 1 0 011-1zM16 20h1v-1h-1v1zm0-2h1a1 1 0 011 1v1a1 1 0 01-1 1h-1a1 1 0 01-1-1v-1a1 1 0 011-1zM20 20h1v-1h-1v1zm0-2h1a1 1 0 011 1v1a1 1 0 01-1 1h-1a1 1 0 01-1-1v-1a1 1 0 011-1zM20 16h1v-1h-1v1zm0-2h1a1 1 0 011 1v1a1 1 0 01-1 1h-1a1 1 0 01-1-1v-1a1 1 0 011-1zM16 16h1v-1h-1v1zm0-2h1a1 1 0 011 1v1a1 1 0 01-1 1h-1a1 1 0 01-1-1v-1a1 1 0 011-1zM16 12h1v-1h-1v1zm0-2h1a1 1 0 011 1v1a1 1 0 01-1 1h-1a1 1 0 01-1-1v-1a1 1 0 011-1zM20 12h1v-1h-1v1zm0-2h1a1 1 0 011 1v1a1 1 0 01-1 1h-1a1 1 0 01-1-1v-1a1 1 0 011-1zM20 8h1V7h-1v1zm0-2h1a1 1 0 011 1v1a1 1 0 01-1 1h-1a1 1 0 01-1-1V7a1 1 0 011-1zM16 8h1V7h-1v1zm0-2h1a1 1 0 011 1v1a1 1 0 01-1 1h-1a1 1 0 01-1-1V7a1 1 0 011-1zM11 15v1h2v-1h-2zm0-1h2a1 1 0 011 1v1a1 1 0 01-1 1h-2a1 1 0 01-1-1v-1a1 1 0 011-1zM11 19v2h2v-2h-2zm0-1h2a1 1 0 011 1v3h-4v-3a1 1 0 011-1z"/><path d="M16 5v18h7V5h-7zm0-1h7a1 1 0 011 1v18a1 1 0 01-1 1h-8V5a1 1 0 011-1z"/></g></g><g class="vertex" transform="translate(240 -80)" style="cursor: pointer; pointer-events: auto;"><circle class="handle" r="10" fill="#0E5A8A" stroke="none"/><text x="0" y="15" text-anchor="middle" alignment-baseline="middle" filter="url(#solid)" pointer-events="none" fill="#0E5A8A" style="font-size: 5px; font-family: sans-serif; font-weight: bold;">Dunarit Weapons Factory</text><g transform="scale(0.5)translate(-12 -12)" fill="#FFFFFF" pointer-events="none"><path d="M1 5v18h7V5H1zm0-1h8v20H1a1 1 0 01-1-1V5a1 1 0 011-1z"/><path d="M9 22v1h6v-1H9zm-1-1h8v3H8v-3z"/><path d="M9 1v20h6V1H9zm0-1h6a1 1 0 011 1v21H8V1a1 1 0 011-1z"/><path d="M11 3v1h2V3h-2zm0-1h2a1 1 0 011 1v1a1 1 0 01-1 1h-2a1 1 0 01-1-1V3a1 1 0 011-1zM11 7v1h2V7h-2zm0-1h2a1 1 0 011 1v1a1 1 0 01-1 1h-2a1 1 0 01-1-1V7a1 1 0 011-1zM11 11v1h2v-1h-2zm0-1h2a1 1 0 011 1v1a1 1 0 01-1 1h-2a1 1 0 01-1-1v-1a1 1 0 011-1zM3 8h1V7H3v1zm0-2h1a1 1 0 011 1v1a1 1 0 01-1 1H3a1 1 0 01-1-1V7a1 1 0 011-1zM7 8h1V7H7v1zm0-2h1a1 1 0 011 1v1a1 1 0 01-1 1H7a1 1 0 01-1-1V7a1 1 0 011-1zM3 12h1v-1H3v1zm0-2h1a1 1 0 011 1v1a1 1 0 01-1 1H3a1 1 0 01-1-1v-1a1 1 0 011-1zM7 12h1v-1H7v1zm0-2h1a1 1 0 011 1v1a1 1 0 01-1 1H7a1 1 0 01-1-1v-1a1 1 0 011-1zM3 16h1v-1H3v1zm0-2h1a1 1 0 011 1v1a1 1 0 01-1 1H3a1 1 0 01-1-1v-1a1 1 0 011-1zM7 16h1v-1H7v1zm0-2h1a1 1 0 011 1v1a1 1 0 01-1 1H7a1 1 0 01-1-1v-1a1 1 0 011-1zM3 20h1v-1H3v1zm0-2h1a1 1 0 011 1v1a1 1 0 01-1 1H3a1 1 0 01-1-1v-1a1 1 0 011-1zM7 20h1v-1H7v1zm0-2h1a1 1 0 011 1v1a1 1 0 01-1 1H7a1 1 0 01-1-1v-1a1 1 0 011-1zM16 20h1v-1h-1v1zm0-2h1a1 1 0 011 1v1a1 1 0 01-1 1h-1a1 1 0 01-1-1v-1a1 1 0 011-1zM20 20h1v-1h-1v1zm0-2h1a1 1 0 011 1v1a1 1 0 01-1 1h-1a1 1 0 01-1-1v-1a1 1 0 011-1zM20 16h1v-1h-1v1zm0-2h1a1 1 0 011 1v1a1 1 0 01-1 1h-1a1 1 0 01-1-1v-1a1 1 0 011-1zM16 16h1v-1h-1v1zm0-2h1a1 1 0 011 1v1a1 1 0 01-1 1h-1a1 1 0 01-1-1v-1a1 1 0 011-1zM16 12h1v-1h-1v1zm0-2h1a1 1 0 011 1v1a1 1 0 01-1 1h-1a1 1 0 01-1-1v-1a1 1 0 011-1zM20 12h1v-1h-1v1zm0-2h1a1 1 0 011 1v1a1 1 0 01-1 1h-1a1 1 0 01-1-1v-1a1 1 0 011-1zM20 8h1V7h-1v1zm0-2h1a1 1 0 011 1v1a1 1 0 01-1 1h-1a1 1 0 01-1-1V7a1 1 0 011-1zM16 8h1V7h-1v1zm0-2h1a1 1 0 011 1v1a1 1 0 01-1 1h-1a1 1 0 01-1-1V7a1 1 0 011-1zM11 15v1h2v-1h-2zm0-1h2a1 1 0 011 1v1a1 1 0 01-1 1h-2a1 1 0 01-1-1v-1a1 1 0 011-1zM11 19v2h2v-2h-2zm0-1h2a1 1 0 011 1v3h-4v-3a1 1 0 011-1z"/><path d="M16 5v18h7V5h-7zm0-1h7a1 1 0 011 1v18a1 1 0 01-1 1h-8V5a1 1 0 011-1z"/></g></g><g class="vertex" transform="translate(250 220)" style="cursor: pointer; pointer-events: auto;"><circle class="handle" r="10" fill="#0E5A8A" stroke="none"/><text x="0" y="15" text-anchor="middle" alignment-baseline="middle" filter="url(#solid)" pointer-events="none" fill="#0E5A8A" style="font-size: 5px; font-family: sans-serif; font-weight: bold;">Magnitsky case</text><g transform="scale(0.5)translate(-12 -12)" fill="#FFFFFF" pointer-events="none"><path d="M1 23h13a2 2 0 00-2-2H3a2 2 0 00-2 2zm2-3h9a3 3 0 013 3v1H0v-1a3 3 0 013-3zM2.5 3a.5.5 0 000 1h10a.5.5 0 100-1h-10zm0-1h10a1.5 1.5 0 010 3h-10a1.5 1.5 0 010-3zM2.5 16a.5.5 0 100 1h10a.5.5 0 100-1h-10zm0-1h10a1.5 1.5 0 010 3h-10a1.5 1.5 0 010-3z"/><path d="M4.5 5a.5.5 0 00-.5.5v9a.5.5 0 00.5.5h6a.5.5 0 00.5-.5v-9a.5.5 0 00-.5-.5h-6zm0-1h6A1.5 1.5 0 0112 5.5v9a1.5 1.5 0 01-1.5 1.5h-6A1.5 1.5 0 013 14.5v-9A1.5 1.5 0 014.5 4z"/><path d="M12 9v2h12V9H12zm-1-1h14v4H11V8z"/></g></g><g class="vertex" transform="translate(130 -140)" style="cursor: pointer; pointer-events: auto;"><circle class="handle" r="10" fill="#0E5A8A" stroke="none"/><text x="0" y="15" text-anchor="middle" alignment-baseline="middle" filter="url(#solid)" pointer-events="none" fill="#0E5A8A" style="font-size: 5px; font-family: sans-serif; font-weight: bold;">Att. Sasho Angelov</text><g transform="scale(0.5)translate(-12 -12)" fill="#FFFFFF" pointer-events="none"><path d="M12 11a3 3 0 100-6 3 3 0 000 6zm0 1a4 4 0 110-8 4 4 0 010 8z"/><path d="M12 23c6.075 0 11-4.925 11-11S18.075 1 12 1 1 5.925 1 12s4.925 11 11 11zm0 1C5.373 24 0 18.627 0 12S5.373 0 12 0s12 5.373 12 12-5.373 12-12 12z"/><path d="M6.26 22.541L6 22.399V16a4 4 0 014-4h4a4 4 0 014 4v6.399l-.26.142A11.946 11.946 0 0112 24c-2.022 0-3.984-.5-5.74-1.459zm.74-.74C8.541 22.589 10.245 23 12 23s3.459-.41 5-1.2V16a3 3 0 00-3-3h-4a3 3 0 00-3 3v5.8z"/></g></g><g class="vertex" transform="translate(-100 220)" style="cursor: pointer; pointer-events: auto;"><circle class="handle" r="10" fill="#0E5A8A" stroke="none"/><text x="0" y="15" text-anchor="middle" alignment-baseline="middle" filter="url(#solid)" pointer-events="none" fill="#0E5A8A" style="font-size: 5px; font-family: sans-serif; font-weight: bold;">Luca Volonte bribery case</text><g transform="scale(0.5)translate(-12 -12)" fill="#FFFFFF" pointer-events="none"><path d="M1 23h13a2 2 0 00-2-2H3a2 2 0 00-2 2zm2-3h9a3 3 0 013 3v1H0v-1a3 3 0 013-3zM2.5 3a.5.5 0 000 1h10a.5.5 0 100-1h-10zm0-1h10a1.5 1.5 0 010 3h-10a1.5 1.5 0 010-3zM2.5 16a.5.5 0 100 1h10a.5.5 0 100-1h-10zm0-1h10a1.5 1.5 0 010 3h-10a1.5 1.5 0 010-3z"/><path d="M4.5 5a.5.5 0 00-.5.5v9a.5.5 0 00.5.5h6a.5.5 0 00.5-.5v-9a.5.5 0 00-.5-.5h-6zm0-1h6A1.5 1.5 0 0112 5.5v9a1.5 1.5 0 01-1.5 1.5h-6A1.5 1.5 0 013 14.5v-9A1.5 1.5 0 014.5 4z"/><path d="M12 9v2h12V9H12zm-1-1h14v4H11V8z"/></g></g><g class="vertex" transform="translate(20 280)" style="cursor: pointer; pointer-events: auto;"><circle class="handle" r="10" fill="#0E5A8A" stroke="none"/><text x="0" y="15" text-anchor="middle" alignment-baseline="middle" filter="url(#solid)" pointer-events="none" fill="#0E5A8A" style="font-size: 5px; font-family: sans-serif; font-weight: bold;">Azerbaijani Laundromat</text><g transform="scale(0.5)translate(-12 -12)" fill="#FFFFFF" pointer-events="none"><path d="M1 23h13a2 2 0 00-2-2H3a2 2 0 00-2 2zm2-3h9a3 3 0 013 3v1H0v-1a3 3 0 013-3zM2.5 3a.5.5 0 000 1h10a.5.5 0 100-1h-10zm0-1h10a1.5 1.5 0 010 3h-10a1.5 1.5 0 010-3zM2.5 16a.5.5 0 100 1h10a.5.5 0 100-1h-10zm0-1h10a1.5 1.5 0 010 3h-10a1.5 1.5 0 010-3z"/><path d="M4.5 5a.5.5 0 00-.5.5v9a.5.5 0 00.5.5h6a.5.5 0 00.5-.5v-9a.5.5 0 00-.5-.5h-6zm0-1h6A1.5 1.5 0 0112 5.5v9a1.5 1.5 0 01-1.5 1.5h-6A1.5 1.5 0 013 14.5v-9A1.5 1.5 0 014.5 4z"/><path d="M12 9v2h12V9H12zm-1-1h14v4H11V8z"/></g></g><g class="vertex" transform="translate(130 280)" style="cursor: pointer; pointer-events: auto;"><circle class="handle" r="10" fill="#0E5A8A" stroke="none"/><text x="0" y="15" text-anchor="middle" alignment-baseline="middle" filter="url(#solid)" pointer-events="none" fill="#0E5A8A" style="font-size: 5px; font-family: sans-serif; font-weight: bold;">Troika Laundromat</text><g transform="scale(0.5)translate(-12 -12)" fill="#FFFFFF" pointer-events="none"><path d="M1 23h13a2 2 0 00-2-2H3a2 2 0 00-2 2zm2-3h9a3 3 0 013 3v1H0v-1a3 3 0 013-3zM2.5 3a.5.5 0 000 1h10a.5.5 0 100-1h-10zm0-1h10a1.5 1.5 0 010 3h-10a1.5 1.5 0 010-3zM2.5 16a.5.5 0 100 1h10a.5.5 0 100-1h-10zm0-1h10a1.5 1.5 0 010 3h-10a1.5 1.5 0 010-3z"/><path d="M4.5 5a.5.5 0 00-.5.5v9a.5.5 0 00.5.5h6a.5.5 0 00.5-.5v-9a.5.5 0 00-.5-.5h-6zm0-1h6A1.5 1.5 0 0112 5.5v9a1.5 1.5 0 01-1.5 1.5h-6A1.5 1.5 0 013 14.5v-9A1.5 1.5 0 014.5 4z"/><path d="M12 9v2h12V9H12zm-1-1h14v4H11V8z"/></g></g><rect id="selection" stroke="black" stroke-width="0.5px" stroke-dasharray="2" fill-opacity="0" x="0" y="0" width="0" height="0"/></g><defs><pattern id="grid" width="10" height="10" patternUnits="userSpaceOnUse"><path d="M 10 0 L 0 0 0 10" fill="none" stroke="#E1E8ED" stroke-width="0.5"/></pattern><marker id="arrow" viewBox="0 0 10 10" refX="29" refY="5" markerWidth="5" markerHeight="5" orient="auto-start-reverse" fill="#738694"><path d="M 0 0 L 10 5 L 0 10 z"/></marker><marker id="arrow-unselected" viewBox="0 0 10 10" refX="29" refY="5" markerWidth="5" markerHeight="5" orient="auto-start-reverse" fill="#BFCCD6"><path d="M 0 0 L 10 5 L 0 10 z"/></marker><filter x="0" y="0" width="1" height="1" id="solid"><feFlood flood-color="#ffffff"/><feComposite in="SourceGraphic"/></filter></defs></svg>